# xmcd CD database file
#
# Track frame offsets:
#	150
#	15750
#	36400
#	55337
#	76017
#	97867
#	110700
#	130275
#	146800
#	173612
#	181900
#	211860
#	226800
#	253700
#	264675
#	278125
#
# Disc length: 3896 seconds
#
# Revision: 2
# Processed by: cddbd v1.5.1PL2 Copyright (c) Steve Scherf et al.
# Submitted via: CDex 1.50
#
DISCID=d30f3610
DTITLE=Various Artist - Giants of Blues  CD 1
DYEAR=1992
DGENRE=Blues
TTITLE0=I` m Crazy `Bout You Baby - S. Terry and B. McGhee
TTITLE1=Let` s Make It - John Lee Hooker
TTITLE2=Shake It Baby - John Lee Hooker
TTITLE3=I Don` t Know - Sonny Boy Williamson
TTITLE4=Five Long Years - Muddy Waters
TTITLE5=Bye Bye Blues - Memphis Slim
TTITLE6=Dissatisfied - Sonny Boy Williamson
TTITLE7=King Of The World - John Lee Hooker
TTITLE8=Dust My Broom - Howlin` Wolf
TTITLE9=Slow Down - J.B. Lenoir
TTITLE10=Ain` t It A Pitty - Lightnin` Hopkins
TTITLE11=Hound Dog - Big Mama Thornton
TTITLE12=My Own Fault - Otis Rush
TTITLE13=Roll` em Pete - Big Joe Turner
TTITLE14=Aberdeen Blues - Bukka White
TTITLE15=Rock Island Line - S. Terry and B. McGhee
EXTD=YEAR: 1992
EXTT0=
EXTT1=
EXTT2=
EXTT3=
EXTT4=
EXTT5=
EXTT6=
EXTT7=
EXTT8=
EXTT9=
EXTT10=
EXTT11=
EXTT12=
EXTT13=
EXTT14=
EXTT15=
PLAYORDER=
